<svg width="15" height="14" viewBox="0 0 15 14" fill="none" xmlns="http://www.w3.org/2000/svg">
<path d="M14.0234 7.8492C14.4924 7.8492 14.8726 7.469 14.8726 7C14.8726 6.531 14.4924 6.1508 14.0234 6.1508V7.8492ZM0.401832 6.39952C0.0701971 6.73116 0.0701971 7.26884 0.401832 7.60048L5.80613 13.0048C6.13777 13.3364 6.67545 13.3364 7.00709 13.0048C7.33872 12.6731 7.33872 12.1355 7.00709 11.8038L2.20327 7L7.00709 2.19618C7.33872 1.86454 7.33872 1.32686 7.00709 0.995221C6.67545 0.663586 6.13777 0.663586 5.80613 0.995221L0.401832 6.39952ZM14.0234 6.1508L1.00231 6.1508V7.8492L14.0234 7.8492V6.1508Z" fill="white"/>
</svg>
